# Blender v2.78 (sub 0) OBJ File: 'asteroid_fragment.blend'
# www.blender.org
mtllib asteroid_fragment.mtl
o Plane
v -1.000000 0.000000 0.844688
v 1.000000 0.000000 0.844688
v -0.002069 0.000000 -0.844688
v 0.002069 0.000000 -0.844688
v -0.002069 0.000000 -0.844688
v 0.002069 0.000000 -0.844688
v 0.005415 1.698105 0.390248
v -0.000342 1.698105 0.399994
v 0.011196 1.698105 0.399994
v 0.005439 1.698105 0.390248
vn 0.0000 0.5882 -0.8087
vn 0.0000 0.0000 1.0000
vn 0.0000 1.0000 -0.0000
vn 0.0000 0.2533 0.9674
vn 0.8080 0.3455 -0.4773
vn -0.8065 0.3500 -0.4764
vn 0.0000 -1.0000 0.0000
usemtl None
s off
f 4//1 3//1 7//1 10//1
f 3//2 4//2 6//2 5//2
f 8//3 9//3 10//3 7//3
f 1//4 2//4 9//4 8//4
f 2//5 4//5 10//5 9//5
f 3//6 1//6 8//6 7//6
f 2//7 1//7 6//7
